# xmcd
#
# Track frame offsets:
#	150
#	12153
#	27326
#	40285
#	57286
#	71534
#	77853
#	91752
#	111923
#	127609
#	136653
#	155272
#
# Disc length: 2249 seconds
# Revision: 0
# Processed by: cddbd v1.5.2PL0 Copyright (c) Steve Scherf et al.
# Submitted via: dBpowerAMP V12.0
#
DISCID=8b08c70c
DTITLE=Audrey Auld - Come Find Me
DYEAR=2011
DGENRE=Singer/Songwriter
TTITLE0=Come Find Me
TTITLE1=Just Love
TTITLE2=Tasmania
TTITLE3=Forty
TTITLE4=Petals
TTITLE5=Orphan Song
TTITLE6=Beautiful Garden
TTITLE7=You Wish
TTITLE8=Tree
TTITLE9=Nails
TTITLE10=The Butterfly Effect
TTITLE11=Bread and Roses
EXTD=
EXTT0=
EXTT1=
EXTT2=
EXTT3=
EXTT4=
EXTT5=
EXTT6=
EXTT7=
EXTT8=
EXTT9=
EXTT10=
EXTT11=
PLAYORDER=
